<?xml version="1.0" encoding="UTF-8"?>
<!DOCTYPE svg PUBLIC "-//W3C//DTD SVG 1.1//EN" "http://www.w3.org/Graphics/SVG/1.1/DTD/svg11.dtd">
<svg version="1.1" xmlns="http://www.w3.org/2000/svg" xmlns:xlink="http://www.w3.org/1999/xlink" x="0" y="0" width="56.895" height="48.6" viewBox="0, 0, 189.649, 162">
  <g id="Layer_2" transform="translate(-314.351, -249)">
    <g>
      <g>
        <path d="M336.275,362 L483.569,362 C492.091,362 499,371.85 499,384 L499,384 C499,396.15 492.091,406 483.569,406 L336.275,406 C327.753,406 320.844,396.15 320.844,384 L320.844,384 C320.844,371.85 327.753,362 336.275,362 z" fill="#FFE12A"/>
        <path d="M336.275,362 L483.569,362 C492.091,362 499,371.85 499,384 L499,384 C499,396.15 492.091,406 483.569,406 L336.275,406 C327.753,406 320.844,396.15 320.844,384 L320.844,384 C320.844,371.85 327.753,362 336.275,362 z" fill-opacity="0" stroke="#000000" stroke-width="2"/>
      </g>
      <g>
        <path d="M321.553,316.801 L321.546,316 C321.546,281.758 360.956,254 409.572,254 C458.187,254 497.597,281.758 497.597,316 L321.546,316" fill="#FFE12B"/>
        <path d="M321.553,316.801 L321.546,316 C321.546,281.758 360.956,254 409.572,254 C458.187,254 497.597,281.758 497.597,316 L321.546,316" fill-opacity="0" stroke="#000000" stroke-width="2"/>
      </g>
      <path d="M322.22,327.239 L322.307,327.091 L322.113,327.414 L321.662,327.99 L321.159,328.494 L320.736,328.837 L320.463,329.022 L320.352,329.095 L320.38,329.102 L320.52,329.076 L320.747,329.039 L321.044,329.003 L321.398,328.974 L321.8,328.956 L322.241,328.952 L322.983,328.974 L324.059,329.054 L325.213,329.189 L326.444,329.376 L327.738,329.607 L329.08,329.879 L330.461,330.183 L332.587,330.689 L335.456,331.418 L338.3,332.163 L340.379,332.703 L341.725,333.041 L343.027,333.355 L344.278,333.638 L345.472,333.885 L346.602,334.087 L347.416,334.208 L347.945,334.272 L348.451,334.319 L348.943,334.351 L349.426,334.364 L349.904,334.358 L350.385,334.326 L350.885,334.263 L351.43,334.154 L352.062,333.967 L352.856,333.636 L353.91,333.022 L354.842,332.304 L354.842,332.304 C355.016,332.153 355.185,331.995 355.347,331.831 L355.347,331.831 L355.506,331.671 L356.322,330.74 L357.095,329.664 L357.656,328.697 L358.067,327.833 L358.379,327.045 L358.716,326.003 L359.055,324.666 L359.32,323.378 L359.545,322.17 L359.758,321.061 L359.98,320.09 L360.144,319.527 L360.235,319.283 L360.316,319.108 L360.349,319.075 L360.284,319.23 L360.046,319.609 L359.568,320.182 L358.902,320.786 L358.273,321.211 L357.877,321.412 L357.756,321.477 L357.859,321.508 L358.13,321.564 L358.527,321.676 L358.735,321.749 L358.67,321.726 L358.91,321.819 L359.297,322.011 L359.682,322.248 L360.093,322.542 L360.522,322.889 L360.966,323.282 L361.659,323.956 L362.604,324.959 L363.573,326.046 L364.569,327.178 L365.592,328.312 L366.647,329.408 L367.468,330.185 L368.036,330.675 L368.61,331.125 L369.201,331.538 L369.812,331.908 L370.446,332.228 L371.113,332.492 L371.821,332.692 L372.582,332.815 L373.413,332.845 L374.335,332.757 L375.369,332.518 L376.522,332.088 L377.776,331.437 L378.595,330.915 L378.595,330.915 C378.678,330.859 378.76,330.801 378.842,330.741 L378.842,330.741 L379.292,330.412 L380.366,329.582 L381.853,328.342 L383.564,326.85 L384.604,325.976 L385.118,325.585 L385.581,325.273 L385.977,325.052 L386.342,324.895 L386.733,324.774 L387.022,324.715 L387.24,324.681 L387.543,324.644 L387.88,324.622 L388.251,324.619 L388.657,324.638 L389.097,324.682 L389.569,324.756 L389.796,324.801 L389.717,324.784 L389.918,324.832 L390.173,324.932 L390.433,325.071 L390.737,325.267 L391.069,325.516 L391.423,325.814 L391.99,326.353 L392.775,327.187 L393.584,328.116 L394.42,329.108 L395.281,330.122 L396.167,331.118 L397.082,332.058 L397.8,332.712 L398.301,333.116 L398.809,333.478 L399.337,333.801 L399.891,334.077 L400.48,334.301 L401.117,334.463 L401.821,334.547 L402.617,334.53 L403.535,334.375 L404.599,334.03 L405.799,333.445 L406.626,332.931 L406.626,332.931 C406.745,332.852 406.862,332.769 406.979,332.681 L406.979,332.681 L407.139,332.561 L407.894,331.937 L408.702,331.164 L409.393,330.402 L410.173,329.409 L411.027,328.145 L411.74,326.942 L412.335,325.852 L413.104,324.408 L413.782,323.223 L414.103,322.752 L414.229,322.612 L414.192,322.681 L414.135,322.764 L413.991,322.925 L413.769,323.131 L413.506,323.336 L413.257,323.497 L413.081,323.596 L413.01,323.643 L413.053,323.665 L413.201,323.691 L413.438,323.745 L413.544,323.778 L413.439,323.747 L413.571,323.792 L413.722,323.872 L413.937,324.009 L414.23,324.217 L414.576,324.484 L414.965,324.804 L415.388,325.168 L415.841,325.571 L416.32,326.005 L416.821,326.465 L417.61,327.19 L418.713,328.193 L419.864,329.201 L421.044,330.171 L422.24,331.063 L423.151,331.663 L423.769,332.021 L424.381,332.332 L425,332.596 L425.635,332.807 L426.295,332.956 L427.007,333.03 L427.813,333.001 L428.785,332.81 L430.02,332.33 L431.538,331.393 L433.086,330 L433.949,328.971 L433.949,328.971 C434.053,328.834 434.152,328.696 434.244,328.557 L434.244,328.557 L434.405,328.314 L434.963,327.381 L435.461,326.436 L435.889,325.556 L436.287,324.709 L436.673,323.889 L437.052,323.108 L437.424,322.388 L437.78,321.754 L438.102,321.246 L438.357,320.911 L438.485,320.801 L438.41,320.945 L438.074,321.277 L437.736,321.529 L437.532,321.66 L437.372,321.748 L437.282,321.797 L437.273,321.821 L437.225,321.833 L437.082,321.832 L437.33,321.841 L437.631,321.891 L437.923,321.98 L438.264,322.117 L438.639,322.306 L439.04,322.544 L439.691,322.999 L440.59,323.736 L441.52,324.588 L442.489,325.524 L443.496,326.504 L444.546,327.489 L445.646,328.439 L446.517,329.112 L447.128,329.534 L447.75,329.918 L448.396,330.267 L449.068,330.573 L449.773,330.832 L450.515,331.035 L451.3,331.175 L452.136,331.241 L453.032,331.22 L453.997,331.099 L455.036,330.858 L455.685,330.656 L455.685,330.656 C455.749,330.635 455.814,330.612 455.88,330.587 L455.88,330.587 L456.095,330.506 L456.799,330.201 L457.889,329.626 L459.311,328.701 L460.683,327.637 L461.905,326.563 L462.995,325.521 L464.418,324.09 L465.697,322.804 L466.407,322.128 L467.035,321.577 L467.552,321.184 L467.944,320.947 L468.087,320.9 L468.125,320.903 L468.245,320.872 L468.378,320.849 L468.537,320.832 L468.729,320.827 L468.778,320.833 L468.654,320.833 L469.035,320.844 L469.599,320.919 L470.119,321.055 L470.657,321.253 L471.207,321.515 L471.764,321.835 L472.325,322.21 L472.888,322.634 L473.746,323.353 L474.888,324.408 L476.046,325.52 L477.247,326.636 L478.196,327.444 L478.863,327.958 L479.551,328.433 L480.271,328.864 L481.03,329.245 L481.836,329.564 L482.696,329.811 L483.622,329.973 L484.623,330.034 L485.709,329.977 L486.888,329.78 L487.884,329.516 L488.6,329.274 L489.286,329.002 L489.991,328.683 L490.71,328.32 L491.444,327.911 L492.186,327.458 L492.935,326.963 L493.689,326.427 L494.446,325.851 L494.874,325.511 L494.874,325.511 C496.779,323.982 497.931,321.742 497.449,320.508 C496.966,319.274 495.031,319.513 493.126,321.042 C493.126,321.042 493.126,321.042 493.126,321.042 L492.993,321.151 L492.65,321.419 L492.329,321.656 L492.028,321.862 L491.745,322.043 L491.476,322.202 L491.217,322.341 L490.966,322.463 L490.717,322.569 L490.52,322.648 L490.184,322.758 L489.656,322.872 L489.106,322.924 L488.539,322.909 L487.958,322.823 L487.369,322.666 L486.777,322.441 L486.185,322.151 L485.593,321.802 L485.005,321.4 L484.427,320.958 L483.552,320.215 L482.378,319.124 L481.187,317.981 L479.962,316.854 L479.008,316.058 L478.336,315.558 L477.633,315.096 L476.893,314.682 L476.107,314.324 L475.265,314.036 L474.357,313.832 L473.437,313.731 L473.054,313.719 L473.054,313.719 C473.013,313.718 472.972,313.718 472.93,313.719 L472.93,313.719 L472.501,313.737 L471.744,313.827 L470.963,313.995 L470.165,314.24 L469.362,314.556 L468.484,314.979 L467.267,315.687 L465.87,316.662 L464.62,317.673 L463.502,318.675 L462.481,319.657 L461.187,320.957 L460.056,322.101 L459.447,322.695 L458.969,323.141 L458.638,323.438 L458.35,323.67 L458.15,323.802 L457.99,323.882 L457.772,323.965 L457.967,323.896 L457.901,323.929 L457.538,324.037 L457.136,324.108 L456.697,324.135 L456.231,324.113 L455.744,324.038 L455.242,323.909 L454.731,323.729 L454.213,323.499 L453.693,323.223 L453.173,322.905 L452.662,322.556 L451.889,321.963 L450.859,321.075 L449.839,320.12 L448.826,319.133 L447.811,318.154 L446.784,317.219 L445.741,316.374 L444.937,315.821 L444.368,315.493 L443.77,315.208 L443.132,314.977 L442.44,314.81 L441.75,314.728 L441.5,314.72 L441.5,314.72 C441.453,314.718 441.405,314.718 441.356,314.72 L441.356,314.72 L440.94,314.742 L440.208,314.852 L439.418,315.069 L438.58,315.401 L437.718,315.848 L436.741,316.485 L435.485,317.51 L434.247,318.771 L433.282,319.966 L432.508,321.085 L431.861,322.145 L431.304,323.155 L430.813,324.117 L430.374,325.021 L429.984,325.85 L429.641,326.58 L429.36,327.168 L429.174,327.544 L429.07,327.75 L428.907,327.995 L429.202,327.581 L429.727,326.997 L430.551,326.349 L431.286,325.969 L431.682,325.872 L431.765,325.897 L431.634,325.93 L431.369,325.921 L431.015,325.854 L430.601,325.725 L430.143,325.536 L429.655,325.292 L429.152,325.004 L428.354,324.484 L427.245,323.66 L426.12,322.736 L425.001,321.756 L423.907,320.762 L423.115,320.034 L422.604,319.565 L422.108,319.116 L421.629,318.69 L421.166,318.292 L420.719,317.926 L420.286,317.595 L419.859,317.301 L419.419,317.044 L418.984,316.85 L418.85,316.805 L418.85,316.805 C418.816,316.793 418.781,316.783 418.745,316.774 L418.745,316.774 L418.373,316.684 L417.686,316.581 L416.953,316.564 L416.157,316.65 L415.286,316.861 L414.345,317.219 L413.366,317.729 L412.404,318.364 L411.513,319.076 L410.727,319.813 L410.053,320.536 L409.421,321.301 L408.693,322.301 L407.932,323.493 L407.074,325.005 L406.356,326.354 L405.956,327.097 L405.649,327.645 L405.44,327.999 L405.385,328.104 L405.496,328.007 L405.702,327.837 L405.833,327.75 L405.671,327.871 L406.024,327.621 L406.362,327.434 L406.589,327.371 L406.689,327.38 L406.651,327.421 L406.498,327.451 L406.261,327.443 L405.965,327.384 L405.627,327.268 L405.262,327.094 L404.879,326.866 L404.482,326.588 L404.084,326.272 L403.466,325.715 L402.621,324.85 L401.77,323.894 L400.914,322.887 L400.054,321.866 L399.185,320.87 L398.308,319.944 L397.64,319.316 L397.174,318.929 L396.69,318.578 L396.181,318.267 L395.631,318.005 L395.079,317.818 L394.877,317.769 L394.877,317.769 C394.851,317.762 394.825,317.757 394.798,317.751 L394.798,317.751 L394.436,317.684 L393.761,317.585 L393.091,317.526 L392.424,317.505 L391.756,317.523 L391.086,317.582 L390.412,317.683 L389.682,317.84 L388.596,318.163 L387.233,318.713 L385.92,319.395 L384.695,320.157 L383.579,320.951 L382.541,321.766 L381.264,322.844 L379.821,324.106 L378.823,324.951 L378.151,325.479 L377.696,325.811 L377.943,325.638 L378.15,325.528 L378.192,325.553 L378.149,325.61 L378.001,325.679 L377.757,325.73 L377.437,325.741 L377.06,325.697 L376.643,325.593 L376.197,325.426 L375.732,325.199 L375.255,324.915 L374.768,324.579 L374.276,324.196 L373.787,323.777 L373.041,323.075 L372.037,322.033 L371.032,320.919 L370.026,319.776 L369.015,318.643 L367.998,317.568 L367.229,316.823 L366.701,316.359 L366.162,315.93 L365.605,315.54 L365.023,315.197 L364.444,314.921 L364.201,314.826 L364.201,314.826 C364.18,314.818 364.158,314.81 364.136,314.803 L364.136,314.803 L363.727,314.671 L362.968,314.487 L362.183,314.393 L361.324,314.412 L360.331,314.597 L359.145,315.039 L357.803,315.821 L356.498,316.889 L355.446,318.026 L354.695,319.061 L354.173,319.955 L353.798,320.738 L353.515,321.447 L353.28,322.148 L353.016,323.1 L352.749,324.288 L352.527,325.442 L352.324,326.538 L352.125,327.533 L351.919,328.397 L351.766,328.913 L351.703,329.106 L351.694,329.167 L351.784,329.062 L352.029,328.777 L352.255,328.558 L352.093,328.721 L352.598,328.249 L353.363,327.675 L354.03,327.317 L354.37,327.198 L354.484,327.18 L354.447,327.199 L354.305,327.224 L354.086,327.243 L353.808,327.251 L353.48,327.244 L353.11,327.222 L352.704,327.185 L352.274,327.134 L351.566,327.031 L350.521,326.845 L349.39,326.612 L348.183,326.339 L346.912,326.033 L345.588,325.7 L343.517,325.162 L340.65,324.412 L337.734,323.671 L335.556,323.153 L334.117,322.836 L332.701,322.551 L331.313,322.304 L329.958,322.101 L328.639,321.95 L327.371,321.86 L326.452,321.838 L325.836,321.847 L325.222,321.879 L324.605,321.938 L323.979,322.029 L323.331,322.16 L322.647,322.346 L321.905,322.608 L321.079,322.982 L320.15,323.516 L319.129,324.256 L318.092,325.208 L317.17,326.286 L316.572,327.163 L316.483,327.314 C315.321,329.278 315.663,330.854 317.247,330.833 C318.831,330.813 321.058,329.203 322.22,327.239 L322.22,327.239" fill="#EE0000"/>
      <g>
        <path d="M332.768,334 L489.18,334 C493.829,334 497.597,339.373 497.597,346 L497.597,346 C497.597,352.627 493.829,358 489.18,358 L332.768,358 C328.12,358 324.351,352.627 324.351,346 L324.351,346 C324.351,339.373 328.12,334 332.768,334 z" fill="#990000"/>
        <path d="M332.768,334 L489.18,334 C493.829,334 497.597,339.373 497.597,346 L497.597,346 C497.597,352.627 493.829,358 489.18,358 L332.768,358 C328.12,358 324.351,352.627 324.351,346 L324.351,346 C324.351,339.373 328.12,334 332.768,334 z" fill-opacity="0" stroke="#000000" stroke-width="2"/>
      </g>
      <path d="M318.889,327.954 L318.977,328.102 L319.24,328.474 L319.566,328.833 L319.93,329.149 L320.33,329.424 L320.763,329.66 L321.223,329.86 L321.71,330.026 L322.221,330.16 L322.755,330.266 L323.308,330.345 L323.881,330.399 L324.471,330.429 L325.078,330.439 L325.999,330.416 L327.286,330.325 L328.638,330.171 L330.031,329.963 L331.457,329.71 L332.908,329.418 L334.379,329.095 L336.588,328.569 L339.536,327.821 L342.419,327.066 L344.485,326.53 L345.793,326.201 L347.044,325.899 L348.223,325.633 L349.319,325.408 L350.321,325.23 L350.989,325.133 L351.389,325.087 L351.771,325.052 L352.122,325.032 L352.436,325.025 L352.714,325.033 L352.952,325.053 L353.15,325.084 L353.306,325.124 L353.42,325.169 L353.493,325.215 L353.527,325.254 L353.492,325.237 L353.43,325.178 L353.589,325.339 L353.818,325.622 L354.011,325.921 L354.192,326.261 L354.36,326.64 L354.516,327.055 L354.732,327.753 L354.98,328.763 L355.197,329.838 L355.405,330.962 L355.625,332.105 L355.881,333.237 L356.115,334.074 L356.302,334.625 L356.513,335.143 L356.756,335.638 L357.039,336.105 L357.369,336.537 L357.753,336.929 L358.203,337.27 L358.726,337.551 L359.332,337.756 L360.026,337.871 L360.81,337.883 L361.677,337.781 L362.617,337.561 L363.202,337.376 L363.202,337.376 C363.276,337.352 363.351,337.325 363.426,337.296 L363.426,337.296 L363.666,337.202 L364.544,336.796 L365.542,336.226 L366.492,335.58 L367.372,334.894 L368.179,334.195 L369.216,333.204 L370.477,331.879 L371.635,330.587 L372.677,329.403 L373.617,328.362 L374.447,327.507 L374.929,327.066 L375.151,326.888 L375.373,326.726 L375.543,326.624 L375.668,326.568 L375.765,326.543 L375.86,326.532 L375.98,326.527 L376.15,326.527 L376.384,326.546 L376.685,326.602 L377.049,326.713 L377.467,326.897 L377.931,327.168 L378.152,327.321 L378.117,327.296 L378.568,327.626 L379.413,328.284 L380.624,329.3 L382.183,330.662 L383.357,331.652 L384.168,332.283 L385.003,332.87 L385.878,333.404 L386.806,333.872 L387.801,334.26 L388.618,334.493 L389.203,334.616 L389.793,334.702 L390.408,334.754 L391.051,334.772 L391.723,334.75 L392.423,334.688 L393.153,334.583 L393.571,334.506 L393.571,334.506 C393.628,334.495 393.685,334.483 393.744,334.469 L393.744,334.469 L393.944,334.42 L394.759,334.153 L395.742,333.705 L396.707,333.14 L397.611,332.503 L398.434,331.836 L399.447,330.902 L400.648,329.652 L401.723,328.429 L402.665,327.314 L403.503,326.327 L404.237,325.505 L404.84,324.901 L405.109,324.68 L405.157,324.661 L405.212,324.641 L405.209,324.667 L405.169,324.715 L405.125,324.762 L405.113,324.797 L405.163,324.823 L405.286,324.856 L405.484,324.919 L405.748,325.034 L406.066,325.22 L406.212,325.324 L406.161,325.288 L406.321,325.408 L406.574,325.629 L406.81,325.871 L407.05,326.149 L407.42,326.639 L407.905,327.382 L408.381,328.203 L408.86,329.087 L409.6,330.475 L410.384,331.854 L410.962,332.746 L411.433,333.379 L411.775,333.784 L412.13,334.155 L412.509,334.499 L412.918,334.813 L413.359,335.091 L413.841,335.329 L414.37,335.518 L414.955,335.65 L415.603,335.713 L416.322,335.695 L417.116,335.579 L417.637,335.457 L417.637,335.457 C417.734,335.432 417.832,335.403 417.931,335.37 L417.931,335.37 L418.063,335.325 L418.89,334.972 L419.796,334.466 L420.581,333.94 L421.275,333.417 L421.909,332.902 L422.504,332.394 L423.074,331.888 L423.629,331.386 L424.173,330.888 L424.975,330.15 L426.033,329.188 L427.047,328.303 L427.989,327.534 L428.823,326.926 L429.292,326.636 L429.506,326.526 L429.734,326.422 L429.917,326.36 L430.061,326.332 L430.179,326.329 L430.289,326.345 L430.408,326.38 L430.547,326.442 L430.713,326.546 L430.902,326.709 L431.109,326.948 L431.188,327.066 L431.146,327.006 L431.307,327.25 L431.601,327.759 L431.913,328.366 L432.253,329.07 L432.617,329.845 L433.006,330.671 L433.421,331.527 L433.865,332.393 L434.341,333.251 L434.854,334.083 L435.408,334.872 L436.013,335.599 L436.677,336.246 L437.241,336.681 L437.66,336.941 L438.091,337.154 L438.557,337.329 L439.065,337.46 L439.623,337.538 L439.986,337.557 L439.986,337.557 C440.034,337.558 440.083,337.558 440.132,337.556 L440.132,337.556 L440.381,337.548 L441.139,337.459 L442.03,337.252 L442.957,336.928 L443.894,336.497 L444.813,335.982 L446.018,335.173 L447.505,333.994 L448.858,332.777 L450.032,331.648 L451.066,330.642 L451.981,329.786 L452.773,329.113 L453.222,328.785 L453.435,328.652 L453.683,328.512 L453.914,328.402 L454.142,328.315 L454.384,328.244 L454.656,328.188 L454.973,328.15 L455.342,328.14 L455.766,328.168 L456.245,328.247 L456.775,328.388 L457.025,328.474 L456.967,328.454 L457.183,328.536 L457.545,328.699 L458.096,329.006 L458.856,329.527 L459.633,330.152 L460.435,330.872 L461.254,331.662 L462.513,332.931 L463.8,334.225 L464.685,335.073 L465.589,335.878 L466.52,336.62 L467.486,337.278 L468.256,337.711 L468.8,337.965 L469.349,338.175 L469.922,338.345 L470.526,338.469 L471.167,338.541 L471.559,338.557 L471.559,338.557 C471.6,338.558 471.642,338.558 471.685,338.556 L471.685,338.556 L472.066,338.545 L473.04,338.439 L474.119,338.204 L475.226,337.837 L476.345,337.344 L477.448,336.742 L478.503,336.063 L479.49,335.341 L480.756,334.299 L482.259,332.927 L483.566,331.675 L484.65,330.67 L485.27,330.153 L485.559,329.945 L485.85,329.759 L486.102,329.627 L486.339,329.532 L486.593,329.457 L486.896,329.396 L487.275,329.356 L487.742,329.352 L488.3,329.404 L488.945,329.534 L489.463,329.687 L489.832,329.82 L490.237,329.986 L490.659,330.182 L491.099,330.409 L491.556,330.669 L492.029,330.962 L492.518,331.29 L493.024,331.654 L493.545,332.054 L493.805,332.264 L493.805,332.264 C494.778,333.046 496.951,332.218 498.658,330.416 C500.365,328.613 500.96,326.518 499.987,325.736 L499.687,325.496 L499.107,325.052 L498.537,324.643 L497.976,324.269 L497.424,323.929 L496.879,323.621 L496.34,323.346 L495.806,323.102 L495.277,322.889 L494.732,322.701 L493.919,322.48 L492.856,322.299 L491.779,322.242 L490.678,322.315 L489.55,322.522 L488.404,322.866 L487.26,323.335 L486.145,323.91 L485.086,324.559 L484.102,325.248 L483.144,325.997 L481.941,327.031 L480.65,328.233 L479.607,329.236 L478.744,330.046 L478.198,330.518 L477.949,330.72 L477.741,330.879 L477.546,331.012 L477.33,331.137 L477.057,331.257 L476.707,331.361 L476.197,331.432 L475.814,331.444 L475.941,331.443 L475.854,331.447 L475.546,331.424 L475.211,331.364 L474.853,331.265 L474.478,331.128 L474.107,330.962 L473.517,330.639 L472.693,330.086 L471.858,329.424 L471.015,328.676 L470.169,327.866 L468.884,326.574 L467.588,325.269 L466.709,324.422 L465.811,323.621 L464.885,322.886 L463.935,322.25 L463.196,321.85 L462.694,321.629 L462.476,321.546 L462.476,321.546 C462.457,321.539 462.438,321.532 462.418,321.526 L462.418,321.526 L461.954,321.377 L461.082,321.17 L460.193,321.056 L459.283,321.036 L458.35,321.114 L457.394,321.291 L456.423,321.567 L455.449,321.935 L454.487,322.384 L453.552,322.899 L452.657,323.461 L451.749,324.099 L450.554,325.037 L449.215,326.201 L448.061,327.286 L447.074,328.246 L446.265,329.033 L445.661,329.603 L445.205,330.006 L444.956,330.205 L444.904,330.257 L444.868,330.299 L444.817,330.343 L444.724,330.391 L444.491,330.435 L444.241,330.444 L444.387,330.443 L444.381,330.451 L444.217,330.443 L444.025,330.406 L443.812,330.337 L443.585,330.234 L443.366,330.109 L443.01,329.851 L442.511,329.381 L442.022,328.804 L441.548,328.137 L441.092,327.402 L440.655,326.617 L440.235,325.8 L439.833,324.972 L439.445,324.148 L439.069,323.346 L438.698,322.582 L438.328,321.868 L437.959,321.239 L437.797,320.994 L437.797,320.994 C437.783,320.974 437.769,320.954 437.755,320.934 L437.755,320.934 L437.496,320.607 L436.978,320.101 L436.384,319.706 L435.711,319.428 L434.961,319.274 L434.144,319.247 L433.277,319.346 L432.38,319.559 L431.476,319.871 L430.582,320.262 L429.709,320.714 L428.803,321.25 L427.563,322.079 L426.091,323.187 L424.728,324.312 L423.472,325.414 L422.333,326.45 L421.555,327.166 L421.086,327.596 L420.666,327.977 L420.304,328.3 L420.013,328.554 L419.812,328.725 L419.727,328.801 L419.793,328.776 L420.043,328.663 L420.284,328.585 L420.15,328.63 L420.443,328.543 L420.486,328.544 L420.357,328.585 L420.196,328.61 L420.004,328.61 L419.788,328.577 L419.552,328.507 L419.304,328.397 L419.047,328.245 L418.786,328.052 L418.523,327.82 L418.261,327.552 L418.009,327.259 L417.626,326.753 L417.122,325.983 L416.371,324.664 L415.622,323.259 L415.107,322.31 L414.563,321.381 L413.985,320.505 L413.519,319.897 L413.179,319.511 L412.814,319.149 L412.442,318.833 L412.281,318.712 L412.281,318.712 C412.264,318.7 412.247,318.688 412.23,318.676 L412.23,318.676 L411.886,318.453 L411.232,318.117 L410.531,317.878 L409.772,317.746 L408.948,317.732 L408.056,317.849 L407.111,318.105 L406.141,318.493 L405.183,318.99 L404.267,319.566 L403.417,320.186 L402.567,320.889 L401.5,321.878 L400.342,323.079 L399.339,324.209 L398.461,325.244 L397.707,326.14 L397.103,326.843 L396.643,327.354 L396.42,327.585 L396.423,327.604 L396.512,327.567 L396.664,327.508 L396.837,327.462 L396.845,327.482 L396.642,327.531 L396.815,327.494 L396.644,327.529 L396.225,327.596 L395.817,327.639 L395.415,327.657 L395.019,327.653 L394.628,327.625 L394.241,327.573 L393.878,327.504 L393.32,327.356 L392.56,327.071 L391.809,326.701 L391.064,326.252 L390.321,325.734 L389.58,325.158 L388.437,324.195 L386.843,322.803 L385.567,321.735 L384.667,321.035 L384.213,320.704 L384.213,320.704 C384.201,320.695 384.19,320.687 384.178,320.679 L384.178,320.679 L383.786,320.42 L383.038,320.014 L382.26,319.711 L381.443,319.515 L380.578,319.432 L379.66,319.47 L378.693,319.637 L377.687,319.935 L376.67,320.355 L375.667,320.877 L374.704,321.475 L373.797,322.121 L372.953,322.793 L372.118,323.524 L371.033,324.563 L369.803,325.845 L368.715,327.052 L367.755,328.144 L366.933,329.07 L366.233,329.825 L365.807,330.251 L365.643,330.41 L365.554,330.5 L365.536,330.537 L365.567,330.549 L365.48,330.61 L365.237,330.704 L365.46,330.624 L365.429,330.645 L365.213,330.72 L365.024,330.768 L364.846,330.792 L364.667,330.788 L364.483,330.751 L364.295,330.675 L364.104,330.552 L363.915,330.38 L363.732,330.157 L363.557,329.885 L363.393,329.564 L363.239,329.197 L363.101,328.803 L362.907,328.126 L362.674,327.098 L362.458,325.978 L362.239,324.798 L361.992,323.59 L361.694,322.4 L361.421,321.539 L361.202,320.973 L360.95,320.427 L360.659,319.905 L360.324,319.414 L359.963,318.985 L359.802,318.822 L359.802,318.822 C359.782,318.802 359.761,318.782 359.739,318.763 L359.739,318.763 L359.537,318.601 L359.185,318.384 L358.804,318.218 L358.399,318.094 L357.974,318.006 L357.53,317.949 L357.068,317.919 L356.589,317.912 L356.093,317.926 L355.581,317.959 L355.052,318.009 L354.494,318.077 L353.639,318.204 L352.465,318.415 L351.236,318.669 L349.958,318.958 L348.635,319.277 L347.273,319.62 L345.189,320.161 L342.361,320.901 L339.524,321.623 L337.43,322.122 L336.081,322.419 L334.773,322.684 L333.518,322.91 L332.324,323.091 L331.203,323.223 L330.147,323.302 L329.407,323.324 L328.956,323.319 L328.53,323.3 L328.133,323.266 L327.762,323.218 L327.421,323.155 L327.109,323.079 L326.825,322.989 L326.571,322.888 L326.347,322.775 L326.15,322.653 L325.979,322.52 L325.835,322.379 L325.694,322.196 L325.605,322.046 C325.605,322.046 325.605,322.046 325.605,322.046 C324.957,320.951 322.928,321.386 321.073,323.018 C319.218,324.649 318.241,326.859 318.889,327.954 L318.889,327.954" fill="#38C400"/>
      <path d="M388.772,280.727 L388.772,280.727 L388.772,280.727 C389.382,280.727 390.131,280.171 390.445,279.485 C390.759,278.798 390.519,278.242 389.909,278.242 L389.909,278.242 C389.299,278.242 388.549,278.798 388.236,279.485 C387.922,280.171 388.162,280.727 388.772,280.727 L388.772,280.727" fill="#000000"/>
      <path d="M427.97,295.896 L427.97,295.896 L427.97,295.896 C428.58,295.896 429.329,295.34 429.643,294.653 C429.957,293.967 429.717,293.411 429.107,293.411 L429.107,293.411 C428.497,293.411 427.747,293.967 427.434,294.653 C427.12,295.34 427.36,295.896 427.97,295.896 L427.97,295.896" fill="#000000"/>
      <path d="M450.929,299.089 L450.928,299.089 L450.928,299.089 C451.538,299.089 452.288,298.533 452.602,297.847 C452.916,297.161 452.676,296.604 452.066,296.604 L452.066,296.604 C451.455,296.604 450.706,297.161 450.392,297.847 C450.079,298.533 450.319,299.089 450.929,299.089 L450.929,299.089" fill="#000000"/>
      <path d="M467.728,299.089 L467.728,299.089 L467.728,299.089 C468.338,299.089 469.087,298.533 469.401,297.847 C469.715,297.161 469.475,296.604 468.865,296.604 L468.865,296.604 C468.255,296.604 467.505,297.161 467.192,297.847 C466.878,298.533 467.118,299.089 467.728,299.089 L467.728,299.089" fill="#000000"/>
      <path d="M444.769,273.541 L444.769,273.541 L444.769,273.541 C445.379,273.542 446.128,272.986 446.442,272.299 C446.756,271.613 446.516,271.057 445.906,271.057 L445.906,271.057 C445.296,271.057 444.547,271.613 444.233,272.299 C443.919,272.985 444.159,273.542 444.769,273.541 L444.769,273.541" fill="#000000"/>
      <path d="M415.091,273.541 L415.09,273.541 L415.09,273.541 C415.7,273.542 416.449,272.986 416.764,272.299 C417.078,271.613 416.838,271.057 416.228,271.057 L416.227,271.057 C415.617,271.057 414.868,271.613 414.554,272.299 C414.24,272.985 414.481,273.542 415.091,273.541 L415.091,273.541" fill="#000000"/>
      <path d="M411.731,295.097 L411.73,295.097 L411.73,295.097 C412.34,295.097 413.09,294.541 413.404,293.855 C413.718,293.169 413.478,292.613 412.868,292.612 L412.868,292.612 C412.257,292.613 411.508,293.169 411.194,293.855 C410.881,294.541 411.121,295.097 411.731,295.097 L411.731,295.097" fill="#000000"/>
      <path d="M393.812,302.282 L393.811,302.282 L393.811,302.282 C394.421,302.283 395.171,301.727 395.485,301.04 C395.799,300.354 395.559,299.798 394.949,299.798 L394.948,299.798 C394.338,299.798 393.589,300.354 393.275,301.04 C392.962,301.727 393.202,302.283 393.812,302.282 L393.812,302.282" fill="#000000"/>
      <path d="M379.253,302.282 L379.252,302.282 L379.252,302.282 C379.862,302.283 380.611,301.727 380.925,301.04 C381.24,300.354 381,299.798 380.39,299.798 L380.389,299.798 C379.779,299.798 379.03,300.354 378.716,301.04 C378.402,301.727 378.642,302.283 379.253,302.282 L379.253,302.282" fill="#000000"/>
      <path d="M362.454,302.282 L362.453,302.282 L362.453,302.282 C363.063,302.283 363.812,301.727 364.126,301.04 C364.441,300.354 364.201,299.798 363.591,299.798 L363.59,299.798 C362.98,299.798 362.231,300.354 361.917,301.04 C361.603,301.727 361.843,302.283 362.454,302.282 L362.454,302.282" fill="#000000"/>
      <path d="M342.855,307.073 L342.854,307.073 L342.854,307.073 C343.464,307.073 344.213,306.517 344.527,305.831 C344.841,305.144 344.602,304.588 343.992,304.588 L343.991,304.588 C343.381,304.588 342.632,305.144 342.318,305.831 C342.004,306.517 342.244,307.073 342.855,307.073 L342.855,307.073" fill="#000000"/>
      <path d="M332.215,303.879 L332.214,303.879 L332.214,303.879 C332.824,303.879 333.574,303.323 333.888,302.637 C334.202,301.951 333.962,301.395 333.352,301.394 L333.352,301.394 C332.741,301.395 331.992,301.951 331.678,302.637 C331.365,303.323 331.605,303.879 332.215,303.879 L332.215,303.879" fill="#000000"/>
      <path d="M343.414,290.307 L343.414,290.307 L343.414,290.307 C344.024,290.307 344.773,289.751 345.087,289.065 C345.401,288.379 345.162,287.822 344.552,287.822 L344.551,287.822 C343.941,287.822 343.192,288.379 342.878,289.065 C342.564,289.751 342.804,290.307 343.414,290.307 L343.414,290.307" fill="#000000"/>
      <path d="M364.693,283.122 L364.693,283.122 L364.693,283.122 C365.303,283.122 366.052,282.566 366.366,281.88 C366.68,281.194 366.441,280.637 365.831,280.637 L365.83,280.637 C365.22,280.637 364.471,281.193 364.157,281.88 C363.843,282.566 364.083,283.122 364.693,283.122 L364.693,283.122" fill="#000000"/>
      <path d="M375.333,291.105 L375.332,291.105 L375.332,291.105 C375.942,291.106 376.691,290.549 377.006,289.863 C377.32,289.177 377.08,288.621 376.47,288.621 L376.469,288.621 C375.859,288.621 375.11,289.177 374.796,289.863 C374.482,290.549 374.723,291.106 375.333,291.105 L375.333,291.105" fill="#000000"/>
      <path d="M350.134,290.307 L350.134,290.307 L350.134,290.307 C350.744,290.307 351.493,289.751 351.807,289.065 C352.121,288.379 351.881,287.822 351.271,287.822 L351.271,287.822 C350.66,287.822 349.911,288.379 349.598,289.065 C349.284,289.751 349.524,290.307 350.134,290.307 L350.134,290.307" fill="#000000"/>
      <path d="M348.454,305.476 L348.454,305.476 L348.454,305.476 C349.064,305.476 349.813,304.92 350.127,304.234 C350.441,303.548 350.201,302.991 349.591,302.991 L349.591,302.991 C348.981,302.991 348.232,303.548 347.918,304.234 C347.604,304.92 347.844,305.476 348.454,305.476 L348.454,305.476" fill="#000000"/>
      <path d="M358.534,308.669 L358.533,308.669 L358.533,308.669 C359.143,308.67 359.892,308.113 360.207,307.427 C360.521,306.741 360.281,306.185 359.671,306.184 L359.67,306.184 C359.06,306.185 358.311,306.741 357.997,307.427 C357.683,308.113 357.924,308.67 358.534,308.669 L358.534,308.669" fill="#000000"/>
      <path d="M359.654,278.332 L359.653,278.332 L359.653,278.332 C360.263,278.332 361.012,277.776 361.326,277.09 C361.641,276.403 361.401,275.847 360.791,275.847 L360.79,275.847 C360.18,275.847 359.431,276.403 359.117,277.089 C358.803,277.776 359.043,278.332 359.654,278.332 L359.654,278.332" fill="#000000"/>
      <path d="M374.213,271.146 L374.212,271.146 L374.212,271.146 C374.822,271.146 375.572,270.59 375.886,269.904 C376.2,269.218 375.96,268.662 375.35,268.661 L375.349,268.661 C374.739,268.662 373.99,269.218 373.676,269.904 C373.362,270.59 373.603,271.146 374.213,271.146 L374.213,271.146" fill="#000000"/>
      <path d="M387.092,265.558 L387.092,265.558 L387.092,265.558 C387.702,265.558 388.451,265.002 388.765,264.316 C389.079,263.63 388.839,263.073 388.229,263.073 L388.229,263.073 C387.619,263.073 386.87,263.629 386.556,264.316 C386.242,265.002 386.482,265.558 387.092,265.558 L387.092,265.558" fill="#000000"/>
      <path d="M405.011,270.348 L405.011,270.348 L405.011,270.348 C405.621,270.348 406.37,269.792 406.684,269.106 C406.998,268.42 406.759,267.863 406.148,267.863 L406.148,267.863 C405.538,267.863 404.789,268.42 404.475,269.106 C404.161,269.792 404.401,270.348 405.011,270.348 L405.011,270.348" fill="#000000"/>
      <path d="M414.531,263.961 L414.53,263.961 L414.53,263.961 C415.14,263.961 415.889,263.405 416.204,262.719 C416.518,262.033 416.278,261.476 415.668,261.476 L415.667,261.476 C415.057,261.476 414.308,262.033 413.994,262.719 C413.68,263.405 413.921,263.961 414.531,263.961 L414.531,263.961" fill="#000000"/>
      <path d="M432.45,260.768 L432.449,260.768 L432.449,260.768 C433.059,260.768 433.809,260.212 434.123,259.526 C434.437,258.839 434.197,258.283 433.587,258.283 L433.587,258.283 C432.976,258.283 432.227,258.839 431.913,259.525 C431.6,260.212 431.84,260.768 432.45,260.768 L432.45,260.768" fill="#000000"/>
      <path d="M431.33,271.945 L431.329,271.945 L431.329,271.945 C431.939,271.945 432.689,271.389 433.003,270.703 C433.317,270.016 433.077,269.46 432.467,269.46 L432.467,269.46 C431.856,269.46 431.107,270.016 430.793,270.703 C430.48,271.389 430.72,271.945 431.33,271.945 L431.33,271.945" fill="#000000"/>
      <path d="M426.85,285.517 L426.85,285.517 L426.85,285.517 C427.46,285.517 428.209,284.961 428.523,284.275 C428.837,283.589 428.597,283.032 427.987,283.032 L427.987,283.032 C427.377,283.032 426.628,283.589 426.314,284.275 C426,284.961 426.24,285.517 426.85,285.517 L426.85,285.517" fill="#000000"/>
      <path d="M400.532,284.718 L400.531,284.718 L400.531,284.718 C401.141,284.719 401.89,284.163 402.204,283.476 C402.519,282.79 402.279,282.234 401.669,282.234 L401.668,282.234 C401.058,282.234 400.309,282.79 399.995,283.476 C399.681,284.163 399.921,284.719 400.532,284.718 L400.532,284.718" fill="#000000"/>
      <path d="M398.292,298.291 L398.291,298.291 L398.291,298.291 C398.901,298.291 399.65,297.735 399.965,297.049 C400.279,296.362 400.039,295.806 399.429,295.806 L399.428,295.806 C398.818,295.806 398.069,296.362 397.755,297.049 C397.441,297.735 397.682,298.291 398.292,298.291 L398.292,298.291" fill="#000000"/>
      <path d="M406.691,311.064 L406.691,311.064 L406.691,311.064 C407.301,311.065 408.05,310.509 408.364,309.822 C408.678,309.136 408.438,308.58 407.828,308.58 L407.828,308.58 C407.218,308.58 406.469,309.136 406.155,309.822 C405.841,310.508 406.081,311.065 406.691,311.064 L406.691,311.064" fill="#000000"/>
      <path d="M426.29,306.274 L426.29,306.274 L426.29,306.274 C426.9,306.274 427.649,305.718 427.963,305.032 C428.277,304.346 428.037,303.79 427.427,303.789 L427.427,303.789 C426.817,303.79 426.068,304.346 425.754,305.032 C425.44,305.718 425.68,306.274 426.29,306.274 L426.29,306.274" fill="#000000"/>
      <path d="M413.411,303.081 L413.41,303.081 L413.41,303.081 C414.02,303.081 414.77,302.525 415.084,301.839 C415.398,301.153 415.158,300.596 414.548,300.596 L414.547,300.596 C413.937,300.596 413.188,301.153 412.874,301.839 C412.56,302.525 412.801,303.081 413.411,303.081 L413.411,303.081" fill="#000000"/>
      <path d="M421.81,279.13 L421.81,279.13 L421.81,279.13 C422.42,279.13 423.169,278.574 423.483,277.888 C423.797,277.202 423.558,276.645 422.948,276.645 L422.947,276.645 C422.337,276.645 421.588,277.202 421.274,277.888 C420.96,278.574 421.2,279.13 421.81,279.13 L421.81,279.13" fill="#000000"/>
      <path d="M415.091,291.904 L415.09,291.904 L415.09,291.904 C415.7,291.904 416.449,291.348 416.764,290.662 C417.078,289.975 416.838,289.419 416.228,289.419 L416.227,289.419 C415.617,289.419 414.868,289.975 414.554,290.662 C414.24,291.348 414.481,291.904 415.091,291.904 L415.091,291.904" fill="#000000"/>
      <path d="M408.371,284.718 L408.371,284.718 L408.371,284.718 C408.981,284.719 409.73,284.163 410.044,283.476 C410.358,282.79 410.118,282.234 409.508,282.234 L409.508,282.234 C408.898,282.234 408.148,282.79 407.835,283.476 C407.521,284.163 407.761,284.719 408.371,284.718 L408.371,284.718" fill="#000000"/>
      <path d="M401.652,303.081 L401.651,303.081 L401.651,303.081 C402.261,303.081 403.01,302.525 403.324,301.839 C403.639,301.153 403.399,300.596 402.789,300.596 L402.788,300.596 C402.178,300.596 401.429,301.153 401.115,301.839 C400.801,302.525 401.041,303.081 401.652,303.081 L401.652,303.081" fill="#000000"/>
      <path d="M393.252,308.669 L393.251,308.669 L393.251,308.669 C393.861,308.67 394.611,308.113 394.925,307.427 C395.239,306.741 394.999,306.185 394.389,306.184 L394.388,306.184 C393.778,306.185 393.029,306.741 392.715,307.427 C392.402,308.113 392.642,308.67 393.252,308.669 L393.252,308.669" fill="#000000"/>
      <path d="M380.933,309.468 L380.932,309.468 L380.932,309.468 C381.542,309.468 382.291,308.912 382.605,308.226 C382.92,307.539 382.68,306.983 382.07,306.983 L382.069,306.983 C381.459,306.983 380.71,307.539 380.396,308.226 C380.082,308.912 380.322,309.468 380.933,309.468 L380.933,309.468" fill="#000000"/>
      <path d="M385.412,291.105 L385.412,291.105 L385.412,291.105 C386.022,291.106 386.771,290.549 387.085,289.863 C387.399,289.177 387.16,288.621 386.549,288.621 L386.549,288.621 C385.939,288.621 385.19,289.177 384.876,289.863 C384.562,290.549 384.802,291.106 385.412,291.105 L385.412,291.105" fill="#000000"/>
      <path d="M450.369,285.517 L450.368,285.517 L450.368,285.517 C450.978,285.517 451.728,284.961 452.042,284.275 C452.356,283.589 452.116,283.032 451.506,283.032 L451.506,283.032 C450.895,283.032 450.146,283.589 449.832,284.275 C449.519,284.961 449.759,285.517 450.369,285.517 L450.369,285.517" fill="#000000"/>
      <path d="M466.048,284.718 L466.048,284.718 L466.048,284.718 C466.658,284.719 467.407,284.163 467.721,283.476 C468.035,282.79 467.795,282.234 467.185,282.234 L467.185,282.234 C466.575,282.234 465.826,282.79 465.512,283.476 C465.198,284.163 465.438,284.719 466.048,284.718 L466.048,284.718" fill="#000000"/>
      <path d="M478.368,284.718 L478.367,284.718 L478.367,284.718 C478.977,284.719 479.726,284.163 480.04,283.476 C480.355,282.79 480.115,282.234 479.505,282.234 L479.504,282.234 C478.894,282.234 478.145,282.79 477.831,283.476 C477.517,284.163 477.757,284.719 478.368,284.718 L478.368,284.718" fill="#000000"/>
      <path d="M480.607,303.081 L480.607,303.081 L480.607,303.081 C481.217,303.081 481.966,302.525 482.28,301.839 C482.594,301.153 482.355,300.596 481.745,300.596 L481.744,300.596 C481.134,300.596 480.385,301.153 480.071,301.839 C479.757,302.525 479.997,303.081 480.607,303.081 L480.607,303.081" fill="#000000"/>
      <path d="M489.567,303.081 L489.566,303.081 L489.566,303.081 C490.176,303.081 490.926,302.525 491.24,301.839 C491.554,301.153 491.314,300.596 490.704,300.596 L490.704,300.596 C490.093,300.596 489.344,301.153 489.03,301.839 C488.717,302.525 488.957,303.081 489.567,303.081 L489.567,303.081" fill="#000000"/>
      <path d="M490.127,311.064 L490.126,311.064 L490.126,311.064 C490.736,311.065 491.486,310.509 491.8,309.822 C492.114,309.136 491.874,308.58 491.264,308.58 L491.264,308.58 C490.653,308.58 489.904,309.136 489.59,309.822 C489.277,310.508 489.517,311.065 490.127,311.064 L490.127,311.064" fill="#000000"/>
      <path d="M437.49,311.064 L437.489,311.064 L437.489,311.064 C438.099,311.065 438.848,310.509 439.163,309.822 C439.477,309.136 439.237,308.58 438.627,308.58 L438.626,308.58 C438.016,308.58 437.267,309.136 436.953,309.822 C436.639,310.508 436.88,311.065 437.49,311.064 L437.49,311.064" fill="#000000"/>
      <path d="M439.73,296.694 L439.729,296.694 L439.729,296.694 C440.339,296.694 441.088,296.138 441.402,295.452 C441.717,294.766 441.477,294.209 440.867,294.209 L440.866,294.209 C440.256,294.209 439.507,294.766 439.193,295.452 C438.879,296.138 439.119,296.694 439.73,296.694 L439.73,296.694" fill="#000000"/>
      <path d="M433.01,295.896 L433.009,295.896 L433.009,295.896 C433.619,295.896 434.369,295.34 434.683,294.653 C434.997,293.967 434.757,293.411 434.147,293.411 L434.146,293.411 C433.536,293.411 432.787,293.967 432.473,294.653 C432.16,295.34 432.4,295.896 433.01,295.896 L433.01,295.896" fill="#000000"/>
      <path d="M436.37,284.718 L436.369,284.718 L436.369,284.718 C436.979,284.719 437.728,284.163 438.043,283.476 C438.357,282.79 438.117,282.234 437.507,282.234 L437.506,282.234 C436.896,282.234 436.147,282.79 435.833,283.476 C435.519,284.163 435.76,284.719 436.37,284.718 L436.37,284.718" fill="#000000"/>
      <path d="M431.89,281.525 L431.889,281.525 L431.889,281.525 C432.499,281.525 433.249,280.969 433.563,280.283 C433.877,279.597 433.637,279.04 433.027,279.04 L433.027,279.04 C432.416,279.04 431.667,279.597 431.353,280.283 C431.04,280.969 431.28,281.525 431.89,281.525 L431.89,281.525" fill="#000000"/>
      <path d="M440.85,269.55 L440.849,269.55 L440.849,269.55 C441.459,269.55 442.208,268.994 442.522,268.307 C442.837,267.621 442.597,267.065 441.987,267.065 L441.986,267.065 C441.376,267.065 440.627,267.621 440.313,268.307 C439.999,268.994 440.239,269.55 440.85,269.55 L440.85,269.55" fill="#000000"/>
      <path d="M436.93,264.759 L436.929,264.759 L436.929,264.759 C437.539,264.76 438.288,264.203 438.603,263.517 C438.917,262.831 438.677,262.275 438.067,262.275 L438.066,262.275 C437.456,262.275 436.707,262.831 436.393,263.517 C436.079,264.203 436.32,264.76 436.93,264.759 L436.93,264.759" fill="#000000"/>
      <path d="M457.089,274.34 L457.088,274.34 L457.088,274.34 C457.698,274.34 458.447,273.784 458.762,273.098 C459.076,272.411 458.836,271.855 458.226,271.855 L458.225,271.855 C457.615,271.855 456.866,272.411 456.552,273.098 C456.238,273.784 456.479,274.34 457.089,274.34 L457.089,274.34" fill="#000000"/>
      <path d="M461.009,287.912 L461.008,287.912 L461.008,287.912 C461.618,287.912 462.367,287.356 462.681,286.67 C462.995,285.984 462.756,285.427 462.146,285.427 L462.145,285.427 C461.535,285.427 460.786,285.984 460.472,286.67 C460.158,287.356 460.398,287.912 461.009,287.912 L461.009,287.912" fill="#000000"/>
      <path d="M457.649,304.678 L457.648,304.678 L457.648,304.678 C458.258,304.678 459.007,304.122 459.321,303.435 C459.636,302.749 459.396,302.193 458.786,302.193 L458.785,302.193 C458.175,302.193 457.426,302.749 457.112,303.435 C456.798,304.122 457.038,304.678 457.649,304.678 L457.649,304.678" fill="#000000"/>
      <path d="M471.088,310.266 L471.087,310.266 L471.087,310.266 C471.697,310.266 472.447,309.71 472.761,309.024 C473.075,308.338 472.835,307.781 472.225,307.781 L472.225,307.781 C471.614,307.781 470.865,308.338 470.551,309.024 C470.238,309.71 470.478,310.266 471.088,310.266 L471.088,310.266" fill="#000000"/>
      <path d="M472.768,294.299 L472.767,294.299 L472.767,294.299 C473.377,294.299 474.127,293.743 474.441,293.057 C474.755,292.371 474.515,291.814 473.905,291.814 L473.904,291.814 C473.294,291.814 472.545,292.371 472.231,293.057 C471.917,293.743 472.158,294.299 472.768,294.299 L472.768,294.299" fill="#000000"/>
      <path d="M378.693,278.332 L378.692,278.332 L378.692,278.332 C379.302,278.332 380.051,277.776 380.366,277.09 C380.68,276.403 380.44,275.847 379.83,275.847 L379.829,275.847 C379.219,275.847 378.47,276.403 378.156,277.089 C377.842,277.776 378.083,278.332 378.693,278.332 L378.693,278.332" fill="#000000"/>
      <path d="M398.292,265.558 L398.291,265.558 L398.291,265.558 C398.901,265.558 399.65,265.002 399.965,264.316 C400.279,263.63 400.039,263.073 399.429,263.073 L399.428,263.073 C398.818,263.073 398.069,263.629 397.755,264.316 C397.441,265.002 397.682,265.558 398.292,265.558 L398.292,265.558" fill="#000000"/>
      <path d="M394.932,283.122 L394.931,283.122 L394.931,283.122 C395.541,283.122 396.29,282.566 396.605,281.88 C396.919,281.194 396.679,280.637 396.069,280.637 L396.068,280.637 C395.458,280.637 394.709,281.193 394.395,281.88 C394.081,282.566 394.322,283.122 394.932,283.122 L394.932,283.122" fill="#000000"/>
      <path d="M366.933,309.468 L366.933,309.468 L366.933,309.468 C367.543,309.468 368.292,308.912 368.606,308.226 C368.92,307.539 368.68,306.983 368.07,306.983 L368.07,306.983 C367.46,306.983 366.711,307.539 366.397,308.226 C366.083,308.912 366.323,309.468 366.933,309.468 L366.933,309.468" fill="#000000"/>
    </g>
  </g>
</svg>
